<svg width="119" height="119" viewBox="0 0 119 119" fill="none" xmlns="http://www.w3.org/2000/svg">
<rect x="0.5" y="0.5" width="118" height="118" rx="59" fill="#FF928B" fill-opacity="0.5" stroke="#FF928B"/>
<path fill-rule="evenodd" clip-rule="evenodd" d="M92.7699 78.3363C96.4799 82.0463 96.4799 88.0614 92.7699 91.7714C89.0599 95.4814 83.0449 95.4814 79.3349 91.7714L60.2433 72.6798L41.1517 91.7714C37.4417 95.4814 31.4266 95.4814 27.7166 91.7714C24.0067 88.0614 24.0067 82.0463 27.7166 78.3363L46.8082 59.2447L27.7161 40.1526C24.0061 36.4426 24.0061 30.4275 27.7161 26.7175C31.4261 23.0076 37.4411 23.0076 41.1511 26.7175L60.2433 45.8097L79.3354 26.7175C83.0454 23.0076 89.0605 23.0076 92.7705 26.7175C96.4805 30.4275 96.4805 36.4426 92.7705 40.1526L73.6783 59.2447L92.7699 78.3363Z" fill="white"/>
</svg>
