<svg xmlns="http://www.w3.org/2000/svg" width="100" height="100" viewBox="0 0 300 300">
  <path id="hackuci-gear" fill="#fff" d="M282.669,174.994a134.256,134.256,0,0,1-21.194,51.148l12.265,12.265-35.355,35.356L226.118,261.5a134.247,134.247,0,0,1-51.124,21.185V300h-50V282.684a134.259,134.259,0,0,1-51.149-21.2L61.594,273.739,26.238,238.384,38.492,226.13a134.245,134.245,0,0,1-21.187-51.136H0v-50H17.309A134.242,134.242,0,0,1,38.5,73.867L26.246,61.615,61.6,26.26,73.854,38.512a134.245,134.245,0,0,1,51.141-21.191V0h50V17.324a134.241,134.241,0,0,1,51.12,21.183l12.271-12.271L273.74,61.592,261.472,73.86a134.245,134.245,0,0,1,21.194,51.134H300v50H282.669ZM150.006,40a110,110,0,1,0,110,110A110,110,0,0,0,150.006,40Z"/>
</svg>
