<svg xmlns="http://www.w3.org/2000/svg" width="100" height="100" viewBox="0 0 100 100">
  <path id="hackuci-anteater" fill="#fff" d="M79.133,51.8c-0.747.006-2.763,0.885-3.267,0.667L75,50.967a34.907,34.907,0,0,0-2.533-3.5c-2.51-3.159-6.4-5.524-10.4-7.167a14.2,14.2,0,0,0-5.133-1.267q-0.05,2.133-.1,4.267l-1.5.2v0.367l-5.1,2.3A19.5,19.5,0,0,0,47.1,43.233l-0.2.167-1.2,1.7a10.814,10.814,0,0,0-.833,7.333H44.9l4.867-1.267v0.067L50.4,54l1-.433,3.533,6.767c-0.005.975-.856,2.215-1.133,3.067,8.157-.9,15.386-6.987,13.3-16.467,4.714,3.607,9.113,13.242,5.733,21.233A22.867,22.867,0,0,1,60.5,80.033a30.288,30.288,0,0,1-5.567,1.8L52.5,82.1a9.662,9.662,0,0,1-2.833-.033,25.787,25.787,0,0,1-11.4-4.967,12.461,12.461,0,0,1-2.233-1.967,12.213,12.213,0,0,1-1.467-2.067l-0.533-1.4c-1.154-.59-2.438-0.783-3.533-1.433a20.681,20.681,0,0,1-8.167-9.4,34.1,34.1,0,0,1-2.1-6.467,25.8,25.8,0,0,1,1.2-13.6A30.094,30.094,0,0,1,40.267,22.6c5.981-2.123,14.648-2.215,20.533.1,0.763-.607,2.551-3.378,3.867-2.467a5.721,5.721,0,0,1,.267,1.733c0.4-.242,1.26-1.263,2-1.033,0.98,0.3.447,4.232,0.3,5.233a6.773,6.773,0,0,1,1.3,1.033,19.978,19.978,0,0,1,3.4,3.5c3.389,4.417,5.06,8.635,6.467,15.1A29.04,29.04,0,0,1,79.133,51.8ZM64.1,20.8c-0.624.517-2.291,2.967-2.267,3.867L64.1,25.3V25.233a12.084,12.084,0,0,0,.167-4.433H64.1Zm2.733,1.1c-0.447.986-1.392,1.763-1.767,2.833l1.667,1C66.754,24.8,67.228,22.7,66.833,21.9Zm0.733,9.9a2.176,2.176,0,0,0-1.433,1.3A1.873,1.873,0,0,0,68.4,35.467C70.478,34.884,70.246,31.729,67.567,31.8ZM53.1,31.867l-1.8.2A21.963,21.963,0,0,0,47.833,33c-2.13.841-3.569,2.28-5.333,3.433L42.533,36.5l2.433,0.8A31.563,31.563,0,0,0,49.6,38.567c2.405,0.483,4.925-.6,7.5-0.167a22.817,22.817,0,0,1,4.4,1.033l2.2,0.933C62.1,35.509,59.583,31.84,53.1,31.867Zm15.233,0.6A1.187,1.187,0,0,1,68.7,34.8a1.174,1.174,0,0,1-1.4-1.433A1.34,1.34,0,0,1,68.333,32.467ZM25.4,34.3l-1.8,2.9a26.192,26.192,0,0,0-2.533,6.667c-2.453,9.535,1.959,19.88,7.067,23.967A17.108,17.108,0,0,0,34.1,71.1a18.372,18.372,0,0,0,8.9,0c5.133-1.31,9.322-4.28,10.8-9.167a43.1,43.1,0,0,1-10.6,5.133A14.837,14.837,0,0,1,30.933,65.6c-4.691-2.94-7.389-6.979-8.567-13.467a14.306,14.306,0,0,1-.133-4.367L22.4,45.2a53.366,53.366,0,0,1,1.333-6.433l1.2-3.367Zm29.933,4.667v3.967l0.933-.133q0.05-1.9.1-3.8Zm-6.067,12.9L45,53.033,45.7,54.8l0.633,1,3.533-1.567-0.5-2.367h-0.1Z"/>
</svg>
