<svg width="245" height="240" viewBox="0 0 245 240" fill="none" xmlns="http://www.w3.org/2000/svg">
<path d="M101.19 101C94.3779 101 89 107.081 89 114.5C89 121.919 94.4974 128 101.19 128C108.002 128 113.38 121.919 113.38 114.5C113.499 107.081 108.002 101 101.19 101ZM144.81 101C137.998 101 132.62 107.081 132.62 114.5C132.62 121.919 138.118 128 144.81 128C151.622 128 157 121.919 157 114.5C157 107.081 151.622 101 144.81 101Z" fill="white"/>
<path d="M203.4 0H42.6C29.04 0 18 11.04 18 24.72V186.96C18 200.64 29.04 211.68 42.6 211.68H178.68L172.32 189.48L187.68 203.76L202.2 217.2L228 240V24.72C228 11.04 216.96 0 203.4 0ZM157.08 156.72C157.08 156.72 152.76 151.56 149.16 147C164.88 142.56 170.88 132.72 170.88 132.72C165.96 135.96 161.28 138.24 157.08 139.8C151.08 142.32 145.32 144 139.68 144.96C128.16 147.12 117.6 146.52 108.6 144.84C101.76 143.52 95.88 141.6 90.96 139.68C88.2 138.6 85.2 137.28 82.2 135.6C81.84 135.36 81.48 135.24 81.12 135C80.88 134.88 80.76 134.76 80.64 134.64C78.48 133.44 77.28 132.6 77.28 132.6C77.28 132.6 83.04 142.2 98.28 146.76C94.68 151.32 90.24 156.72 90.24 156.72C63.72 155.88 53.64 138.48 53.64 138.48C53.64 99.84 70.92 68.52 70.92 68.52C88.2 55.56 104.64 55.92 104.64 55.92L105.84 57.36C84.24 63.6 74.28 73.08 74.28 73.08C74.28 73.08 76.92 71.64 81.36 69.6C94.2 63.96 104.4 62.4 108.6 62.04C109.32 61.92 109.92 61.8 110.64 61.8C117.96 60.84 126.24 60.6 134.88 61.56C146.28 62.88 158.52 66.24 171 73.08C171 73.08 161.52 64.08 141.12 57.84L142.8 55.92C142.8 55.92 159.24 55.56 176.52 68.52C176.52 68.52 193.8 99.84 193.8 138.48C193.8 138.48 183.6 155.88 157.08 156.72V156.72Z" fill="white"/>
</svg>
