<svg width="36" height="36" viewBox="0 0 36 36" fill="none" xmlns="http://www.w3.org/2000/svg">
<path d="M33.1031 0.5H3.06209C1.68556 0.5 0.567139 1.63281 0.567139 3.02344V32.9766C0.567139 34.3672 1.68556 35.5 3.06209 35.5H33.1031C34.4797 35.5 35.6059 34.3672 35.6059 32.9766V3.02344C35.6059 1.63281 34.4797 0.5 33.1031 0.5ZM11.157 30.5H5.96373V13.7969H11.1648V30.5H11.157ZM8.56036 11.5156C6.89445 11.5156 5.54921 10.1641 5.54921 8.50781C5.54921 6.85156 6.89445 5.5 8.56036 5.5C10.2184 5.5 11.5715 6.85156 11.5715 8.50781C11.5715 10.1719 10.2263 11.5156 8.56036 11.5156ZM30.6238 30.5H25.4306V22.375C25.4306 20.4375 25.3915 17.9453 22.7323 17.9453C20.0262 17.9453 19.6116 20.0547 19.6116 22.2344V30.5H14.4184V13.7969H19.4005V16.0781H19.4709C20.1669 14.7656 21.8641 13.3828 24.3904 13.3828C29.6462 13.3828 30.6238 16.8438 30.6238 21.3438V30.5Z" fill="white"/>
</svg>
