<svg id="Logo_FIXED" data-name="Logo — FIXED" xmlns="http://www.w3.org/2000/svg" viewBox="0 0 250 203.18">
  <defs>
    <style>
      .cls-1 {
        fill: #fff;
      }
    </style>
  </defs>
  <title>Twitter_Logo_WhiteOnImage</title>
  <path class="cls-1" d="M153.62,301.59c94.35,0,145.94-78.16,145.94-145.94q0-3.33-.15-6.63A104.36,104.36,0,0,0,325,122.47a102.42,102.42,0,0,1-29.46,8.07,51.52,51.52,0,0,0,22.56-28.37,102.91,102.91,0,0,1-32.57,12.45,51.34,51.34,0,0,0-87.41,46.77A145.62,145.62,0,0,1,92.4,107.81a51.31,51.31,0,0,0,15.88,68.47,50.87,50.87,0,0,1-23.23-6.42c0,.22,0,.43,0,.66a51.31,51.31,0,0,0,41.15,50.28,51.42,51.42,0,0,1-23.17.88,51.34,51.34,0,0,0,47.92,35.62,102.91,102.91,0,0,1-63.7,22A105.19,105.19,0,0,1,75,278.55a145.17,145.17,0,0,0,78.62,23" transform="translate(-75 -98.41)"/>
</svg>
