<!DOCTYPE svg PUBLIC "-//W3C//DTD SVG 20010904//EN" "http://www.w3.org/TR/2001/REC-SVG-20010904/DTD/svg10.dtd">
<svg version="1.0" xmlns="http://www.w3.org/2000/svg" width="512px" height="512px" viewBox="0 0 5120 5120" preserveAspectRatio="xMidYMid meet">
<g id="layer101" fill="#ffffff" stroke="none">
 <path d="M775 5112 c-6 -5 -41 -14 -80 -21 -276 -51 -534 -286 -636 -578 -56 -162 -53 -42 -57 -1888 -2 -1229 0 -1726 8 -1795 48 -396 322 -714 696 -807 63 -16 209 -17 1794 -21 1159 -2 1755 0 1816 7 379 44 663 295 776 686 l23 80 0 1760 c0 1619 -1 1766 -17 1836 -25 111 -79 248 -127 319 -22 34 -41 66 -41 70 0 4 -47 53 -105 108 -90 88 -118 108 -207 151 -66 33 -134 57 -188 68 -47 10 -86 21 -88 25 -5 11 -3556 10 -3567 0z m2450 -1292 c395 -15 636 -44 729 -88 128 -60 219 -181 251 -331 70 -336 84 -1034 29 -1491 -35 -290 -85 -399 -229 -494 -75 -50 -119 -64 -259 -81 -273 -32 -489 -40 -1191 -40 -702 0 -920 8 -1193 41 -147 17 -202 37 -276 97 -121 99 -161 180 -190 392 -65 464 -56 1219 19 1577 44 212 186 341 410 372 173 24 333 38 535 45 294 12 1082 12 1365 1z"/>
 <path d="M2210 2560 l0 -531 23 12 c12 6 123 73 247 147 124 75 308 186 409 247 102 61 186 116 188 121 2 5 -24 24 -56 42 -33 18 -61 36 -63 41 -2 4 -61 40 -133 80 -71 41 -139 81 -150 91 -11 9 -78 50 -150 90 -71 40 -134 78 -140 84 -5 7 -32 25 -60 40 -27 16 -65 37 -82 48 l-33 20 0 -532z"/>
 </g>

</svg>