<svg width="150" height="150" viewBox="0 0 150 150" fill="none" xmlns="http://www.w3.org/2000/svg">
<rect width="150" height="150" rx="75" fill="#0D272D"/>
<path d="M117.375 72.6562C117.375 69.1948 115.478 66.2051 112.688 64.582V42.189C112.688 40.9072 111.665 37.5 108 37.5C106.957 37.5 105.921 37.8486 105.073 38.5283L92.6177 48.4937C86.3613 53.4946 78.5068 56.25 70.5 56.25H42.375C37.1968 56.25 33 60.4468 33 65.625V79.6875C33 84.8657 37.1968 89.0625 42.375 89.0625H47.3115C47.1079 90.5977 46.9922 92.1592 46.9922 93.75C46.9922 99.5757 48.3486 105.081 50.7363 110.001C51.4966 111.567 53.1563 112.5 54.8965 112.5H65.7773C69.5933 112.5 71.8843 108.129 69.5713 105.094C67.1689 101.941 65.7407 98.0098 65.7407 93.75C65.7407 92.1226 65.978 90.5581 66.3867 89.0625H70.5C78.5068 89.0625 86.3613 91.8179 92.6162 96.8188L105.072 106.784C105.903 107.449 106.935 107.812 107.999 107.812C111.649 107.812 112.686 104.476 112.686 103.125V80.7319C115.478 79.1074 117.375 76.1177 117.375 72.6562ZM103.313 93.3721L98.4712 89.499C90.561 83.1709 80.625 79.6875 70.5 79.6875V65.625C80.625 65.625 90.561 62.1416 98.4712 55.8135L103.313 51.9404V93.3721Z" fill="white"/>
</svg>
