<svg width="150" height="150" viewBox="0 0 150 150" fill="none" xmlns="http://www.w3.org/2000/svg">
<rect width="150" height="150" rx="75" fill="#0D272D"/>
<g clip-path="url(#clip0_464_71)">
<path d="M91.4268 46.875H78.8438C77.6719 46.875 76.5439 47.3145 75.6797 48.1055L61.2803 61.2891C61.2656 61.3037 61.251 61.333 61.2363 61.3477C58.8047 63.6328 58.8486 67.2803 60.9287 69.5508C62.7891 71.5869 66.7002 72.1289 69.1465 69.9463C69.1611 69.9316 69.1904 69.9316 69.2051 69.917L80.9092 59.1943C81.8613 58.3301 83.3555 58.3887 84.2197 59.3408C85.0986 60.293 85.0254 61.7725 84.0732 62.6514L80.25 66.1523L101.578 83.4668C102.003 83.8184 102.384 84.1992 102.735 84.5947V56.25L94.7373 48.252C93.873 47.373 92.6719 46.875 91.4268 46.875ZM107.438 56.2793V89.0771C107.438 91.6699 109.532 93.7646 112.125 93.7646H121.5V56.2793H107.438ZM114.469 89.0771C113.18 89.0771 112.125 88.0225 112.125 86.7334C112.125 85.4443 113.18 84.3896 114.469 84.3896C115.758 84.3896 116.812 85.4443 116.812 86.7334C116.812 88.0225 115.758 89.0771 114.469 89.0771ZM27.75 93.75H37.125C39.7178 93.75 41.8125 91.6553 41.8125 89.0625V56.2793H27.75V93.75ZM34.7812 84.3896C36.0703 84.3896 37.125 85.4443 37.125 86.7334C37.125 88.0225 36.0703 89.0771 34.7812 89.0771C33.4922 89.0771 32.4375 88.0225 32.4375 86.7334C32.4375 85.4297 33.4922 84.3896 34.7812 84.3896ZM98.6338 87.1143L76.7637 69.3604L72.3691 73.3887C68.0186 77.3584 61.3535 76.9775 57.4717 72.7441C53.5312 68.4375 53.8389 61.7725 58.1162 57.8467L70.0986 46.875H57.8232C56.5781 46.875 55.3916 47.373 54.5127 48.252L46.5 56.25V89.0479H49.1807L62.4375 101.045C66.4512 104.312 72.3545 103.696 75.6211 99.6826L75.6504 99.6533L78.2725 101.924C80.6016 103.828 84.0439 103.462 85.9336 101.133L90.5332 95.4785L91.3242 96.123C93.3311 97.749 96.29 97.4561 97.916 95.4346L99.3076 93.7207C100.948 91.6992 100.641 88.7549 98.6338 87.1143Z" fill="white"/>
</g>
<defs>
<clipPath id="clip0_464_71">
<rect width="93.75" height="75" fill="white" transform="translate(27.75 37.5)"/>
</clipPath>
</defs>
</svg>
