<svg width="150" height="150" viewBox="0 0 150 150" fill="none" xmlns="http://www.w3.org/2000/svg">
<rect width="150" height="150" rx="75" fill="#0D272D"/>
<path d="M37.8214 69.6429C43.731 69.6429 48.5357 64.8382 48.5357 58.9286C48.5357 53.019 43.731 48.2143 37.8214 48.2143C31.9118 48.2143 27.1071 53.019 27.1071 58.9286C27.1071 64.8382 31.9118 69.6429 37.8214 69.6429ZM112.821 69.6429C118.731 69.6429 123.536 64.8382 123.536 58.9286C123.536 53.019 118.731 48.2143 112.821 48.2143C106.912 48.2143 102.107 53.019 102.107 58.9286C102.107 64.8382 106.912 69.6429 112.821 69.6429ZM118.179 75H107.464C104.518 75 101.856 76.1886 99.9141 78.1138C106.661 81.8136 111.449 88.4933 112.487 96.4286H123.536C126.499 96.4286 128.893 94.0346 128.893 91.0714V85.7143C128.893 79.8047 124.088 75 118.179 75ZM75.3214 75C85.6841 75 94.0714 66.6127 94.0714 56.25C94.0714 45.8873 85.6841 37.5 75.3214 37.5C64.9587 37.5 56.5714 45.8873 56.5714 56.25C56.5714 66.6127 64.9587 75 75.3214 75ZM88.1786 80.3571H86.7891C83.3069 82.0312 79.4397 83.0357 75.3214 83.0357C71.2031 83.0357 67.3527 82.0312 63.8538 80.3571H62.4643C51.817 80.3571 43.1786 88.9955 43.1786 99.6429V104.464C43.1786 108.901 46.7779 112.5 51.2143 112.5H99.4286C103.865 112.5 107.464 108.901 107.464 104.464V99.6429C107.464 88.9955 98.8259 80.3571 88.1786 80.3571ZM50.7288 78.1138C48.7868 76.1886 46.125 75 43.1786 75H32.4643C26.5547 75 21.75 79.8047 21.75 85.7143V91.0714C21.75 94.0346 24.144 96.4286 27.1071 96.4286H38.1395C39.1942 88.4933 43.9821 81.8136 50.7288 78.1138Z" fill="white"/>
</svg>
