<svg width="1920" height="100" viewBox="0 0 1920 100" fill="none" xmlns="http://www.w3.org/2000/svg">
<path fill-rule="evenodd" clip-rule="evenodd" d="M1920 100H0V49.9857C9.6374 48.4577 19.8145 47.6395 30.336 47.6395C44.7506 47.6395 58.5189 49.1752 71.1385 51.9679C97.6242 31.907 140.348 18.8841 188.544 18.8841C242.708 18.8841 289.962 35.3322 315.022 59.7333C317.211 60.1533 319.355 60.6294 321.446 61.1584C337.874 52.7581 359.684 47.6395 383.616 47.6395C396.233 47.6395 408.259 49.0621 419.219 51.6382C452.784 20.6882 513.708 0 583.296 0C636.428 0 684.509 12.0606 719.218 31.5408C736.2 27.0039 755.217 24.4635 775.296 24.4635C827.183 24.4635 871.98 41.4284 892.894 65.9739C897.75 65.2135 902.87 64.8069 908.16 64.8069C931.508 64.8069 951.546 72.7286 960.135 84.0249C984.259 79.6302 1010.03 77.2532 1036.8 77.2532C1052.82 77.2532 1068.48 78.1043 1083.64 79.7296C1109.77 47.1512 1168.2 24.4635 1236.1 24.4635C1278.54 24.4635 1317.28 33.3297 1346.75 47.9358C1362.98 42.047 1382.34 38.6266 1403.14 38.6266C1423.37 38.6266 1442.25 41.8661 1458.21 47.4676C1479.48 38.9305 1505.54 33.9056 1533.7 33.9056C1568.69 33.9056 1600.45 41.6688 1623.8 54.2903C1650.61 41.5786 1685.39 33.9056 1723.39 33.9056C1768.88 33.9056 1809.76 44.902 1837.88 62.3751C1857.16 53.1898 1882.23 47.6395 1909.63 47.6395C1913.13 47.6395 1916.59 47.7298 1920 47.9066V100Z" fill="white"/>
</svg>
