<svg width="1920" height="100" viewBox="0 0 1920 100" fill="none" xmlns="http://www.w3.org/2000/svg">
<path fill-rule="evenodd" clip-rule="evenodd" d="M0 0H1920V50.0143C1910.36 51.5423 1900.19 52.3605 1889.66 52.3605C1875.25 52.3605 1861.48 50.8248 1848.86 48.0321C1822.38 68.093 1779.65 81.1159 1731.46 81.1159C1677.29 81.1159 1630.04 64.6678 1604.98 40.2667C1602.79 39.8467 1600.65 39.3706 1598.55 38.8416C1582.13 47.2419 1560.32 52.3605 1536.38 52.3605C1523.77 52.3605 1511.74 50.9379 1500.78 48.3618C1467.22 79.3118 1406.29 100 1336.7 100C1283.57 100 1235.49 87.9394 1200.78 68.4592C1183.8 72.9961 1164.78 75.5365 1144.7 75.5365C1092.82 75.5365 1048.02 58.5716 1027.11 34.0261C1022.25 34.7865 1017.13 35.1931 1011.84 35.1931C988.492 35.1931 968.454 27.2714 959.865 15.9751C935.741 20.3698 909.97 22.7468 883.2 22.7468C867.181 22.7468 851.52 21.8957 836.356 20.2704C810.23 52.8488 751.797 75.5365 683.904 75.5365C641.462 75.5365 602.716 66.6703 573.249 52.0642C557.019 57.953 537.656 61.3734 516.864 61.3734C496.629 61.3734 477.748 58.1339 461.791 52.5324C440.522 61.0695 414.46 66.0944 386.304 66.0944C351.308 66.0944 319.546 58.3312 296.203 45.7097C269.386 58.4214 234.609 66.0944 196.608 66.0944C151.117 66.0944 110.244 55.098 82.119 37.6249C62.8389 46.8102 37.7715 52.3605 10.3682 52.3605C6.8717 52.3605 3.41321 52.2702 0 52.0934V0Z" fill="white"/>
</svg>
