<svg width="3112" height="1183" viewBox="0 0 3112 1183" fill="none" xmlns="http://www.w3.org/2000/svg">
<path d="M279 188.045V903.045L371 903.328V562.838H592.818V472.838H371V278H659.889V188L279 188.045Z" fill="black"/>
<path d="M825.48 333.186C858.617 333.186 885.48 306.323 885.48 273.186C885.48 240.049 858.617 213.186 825.48 213.186C792.344 213.186 765.48 240.049 765.48 273.186C765.48 306.323 792.344 333.186 825.48 333.186Z" fill="black"/>
<path d="M778.68 423.186V903.186H870.68V423.186H778.68Z" fill="black"/>
<path fill-rule="evenodd" clip-rule="evenodd" d="M1211.91 409.186C1089.74 409.186 1004.48 512.51 1004.48 635.186C1004.48 757.862 1089.74 861.186 1211.91 861.186C1267.84 861.186 1313.93 839.532 1347.48 804.281V868.186C1347.48 947.715 1285.01 1014.19 1203.48 1014.19C1174.18 1014.19 1145.06 1002.82 1121.86 986.837L1075.77 1066.68C1112.58 1090.41 1156.42 1104.19 1203.48 1104.19C1333.82 1104.19 1439.48 998.526 1439.48 868.186V423.186H1347.48V466.092C1313.93 430.84 1267.84 409.186 1211.91 409.186ZM1096.48 635.186C1096.48 559.039 1154.73 499.186 1221.91 499.186C1289.09 499.186 1347.34 559.039 1347.34 635.186C1347.34 711.333 1289.09 771.186 1221.91 771.186C1154.73 771.186 1096.48 711.333 1096.48 635.186Z" fill="black"/>
<path d="M1770.98 499.186C1716.58 499.186 1672.48 545.286 1672.48 599.686V903.186H1580.48V423.186H1672.48V467.157C1699.44 432.31 1739.15 409.186 1790.98 409.186C1855.45 409.186 1904.92 441.205 1933.58 490.207C1965.44 442.876 2017.42 409.186 2079.98 409.186C2184.69 409.186 2249.86 493.666 2250.48 598.186C2250.48 598.502 2250.48 598.818 2250.48 599.134V599.151V599.169L2250.48 599.186C2250.48 599.353 2250.48 599.519 2250.48 599.686V903.186H2158.48V599.686C2158.48 545.286 2114.38 499.186 2059.98 499.186C2005.58 499.186 1961.48 545.286 1961.48 599.686V903.186H1869.48V599.686C1869.48 545.286 1825.38 499.186 1770.98 499.186Z" fill="black"/>
<path fill-rule="evenodd" clip-rule="evenodd" d="M2740.48 477.599C2699.55 435.337 2643.5 409.186 2578.48 409.186C2441.61 409.186 2344.48 525.068 2344.48 663.186C2344.48 801.304 2441.61 917.186 2578.48 917.186C2643.5 917.186 2699.55 891.036 2740.48 848.774V903.186H2832.48V423.186H2740.48V477.599ZM2436.48 663.186C2436.48 571.554 2506.64 499.186 2588.48 499.186C2670.32 499.186 2740.48 571.554 2740.48 663.186C2740.48 754.819 2670.32 827.186 2588.48 827.186C2506.64 827.186 2436.48 754.819 2436.48 663.186Z" fill="black"/>
</svg>
