<svg xmlns="http://www.w3.org/2000/svg" viewBox="0 0 600 125" width="600" height="125">
	<style>
		tspan { white-space:pre }
		.shp0 { fill: #001871 } 
		.shp1 { fill: #17d9ed } 
		.shp2 { fill: #2470f5 } 
	</style>
	<path id="Layer" fill-rule="evenodd" class="shp0" d="M310.44 20.93L328.21 20.93L307.74 87.92C306.31 92.46 301.71 94.23 296.56 94.25C291.4 94.23 286.8 92.48 285.38 87.99L274.95 51.69L264.54 87.92C263.11 92.46 258.51 94.23 253.36 94.25C248.19 94.23 243.58 92.46 242.16 87.93L221.69 20.93L239.46 20.93L253.35 74.96L267.24 20.93L282.66 20.93L296.55 74.96L310.44 20.93ZM365.94 43.16C365.94 43.16 365.93 43.15 365.93 43.15L365.93 43.16L365.94 43.16ZM365.93 43.15L365.93 36.22L382.03 36.22L382.03 91.76C379.86 95.62 367.89 95.22 365.93 91.76L365.93 87.83C363.32 90.34 358.54 94.34 350.87 94.34C332.89 94.34 323.18 79.36 323.18 65.26C323.18 48.98 335.4 36.71 351.61 36.71C358.88 36.71 363.41 40.62 365.93 43.15ZM353.26 80.09C361.43 80.09 367.36 73.92 367.35 65.43C367.35 55.92 360.26 50.95 353.26 50.95C343.92 50.95 338.88 58.6 338.88 65.79C338.88 73.81 345.2 80.09 353.26 80.09ZM433.48 36.27L450.54 36.27L419.03 118.98C416.1 121.6 405.07 117.39 404.42 113.37L413 90.8L413.12 90.47L412.98 90.14L387.52 36.27L404.16 36.27L419.29 68.83L420.18 71.01L421 68.8L433.48 36.27ZM555.28 36.29C571.49 36.29 583.72 48.57 583.71 64.84C583.71 78.94 574.01 93.92 556.02 93.92C548.34 93.92 543.57 90.84 540.95 88.32L540.95 117.79C538.55 120.99 527.47 120.99 524.85 117.79L524.85 35.87L540.95 35.87L540.95 41.82C543.48 39.3 548.01 36.29 555.28 36.29ZM553.63 79.68C561.7 79.68 568.01 73.4 568.01 65.38C568.01 58.19 562.97 50.54 553.63 50.54C546.62 50.54 539.53 55.52 539.53 65.02C539.53 73.52 545.46 79.68 553.63 79.68Z" />
	<path id="Layer" class="shp1" d="M57.8 115.37C49.51 115.37 41.92 110.71 38.17 103.31L2.67 33.28C-2.83 22.44 1.51 9.2 12.35 3.7C23.19 -1.79 36.43 2.54 41.93 13.38L57.78 44.64L74.33 11.88C79.81 1.03 93.05 -3.32 103.89 2.16C114.74 7.64 119.09 20.88 113.61 31.72L77.45 103.28C73.71 110.68 66.12 115.35 57.82 115.36L57.8 115.36L57.8 115.37Z" />
	<path id="Layer" class="shp2" d="M130.11 115.37L130.09 115.37C121.79 115.36 114.21 110.69 110.47 103.29L74.31 31.73C68.83 20.88 73.18 7.65 84.03 2.17C94.88 -3.31 108.11 1.04 113.59 11.89L130.14 44.64L145.99 13.38C151.48 2.54 164.73 -1.79 175.57 3.7C186.41 9.2 190.74 22.44 185.25 33.28L149.74 103.31C145.99 110.71 138.4 115.37 130.11 115.37" />
	<path id="Layer" class="shp0" d="M113.67 12.03L113.64 11.97C113.6 11.89 113.55 11.8 113.51 11.72C113.37 11.46 113.24 11.2 113.09 10.94C113.05 10.86 113 10.79 112.96 10.71C112.82 10.47 112.68 10.23 112.53 10C112.47 9.91 112.41 9.82 112.35 9.72C112.21 9.51 112.07 9.3 111.93 9.1C111.85 8.99 111.78 8.89 111.7 8.78C111.57 8.6 111.43 8.42 111.29 8.24C111.2 8.12 111.11 8.01 111.01 7.89C110.88 7.73 110.74 7.57 110.61 7.41C110.5 7.29 110.39 7.17 110.29 7.05C110.16 6.91 110.03 6.76 109.9 6.62C109.78 6.49 109.65 6.37 109.53 6.24L109.15 5.86L108.73 5.47C108.61 5.36 108.48 5.25 108.36 5.14C108.21 5.01 108.05 4.88 107.89 4.75C107.77 4.65 107.65 4.56 107.54 4.47C107.36 4.33 107.19 4.2 107 4.07L106.67 3.83C106.47 3.69 106.27 3.55 106.06 3.42C105.96 3.36 105.87 3.29 105.77 3.23C105.55 3.09 105.32 2.95 105.09 2.82C105 2.77 104.92 2.72 104.83 2.67C104.59 2.53 104.34 2.4 104.09 2.27L103.85 2.15C103.62 2.03 103.38 1.92 103.15 1.82C103.05 1.77 102.94 1.72 102.83 1.67L102.47 1.52C100.34 0.63 98.08 0.07 95.77 -0.12C95.72 -0.12 95.68 -0.13 95.63 -0.13C95.37 -0.15 95.12 -0.16 94.86 -0.17C94.75 -0.18 94.63 -0.18 94.52 -0.18C94.33 -0.19 94.14 -0.18 93.95 -0.18L93.41 -0.18C93.29 -0.18 93.16 -0.17 93.03 -0.16C92.79 -0.15 92.54 -0.14 92.3 -0.12C92.24 -0.12 92.18 -0.11 92.12 -0.1C89.85 0.09 87.63 0.64 85.53 1.51C85.38 1.57 85.24 1.63 85.1 1.69C85.01 1.73 84.91 1.78 84.82 1.82C84.57 1.93 84.33 2.05 84.08 2.17C84.01 2.21 83.93 2.25 83.86 2.29C83.6 2.42 83.35 2.56 83.1 2.7C83.02 2.75 82.94 2.8 82.85 2.84C82.62 2.98 82.38 3.12 82.16 3.26C82.07 3.32 81.97 3.38 81.88 3.44C81.67 3.58 81.46 3.71 81.26 3.86C81.15 3.93 81.05 4.01 80.94 4.09C80.76 4.22 80.57 4.36 80.4 4.5C80.28 4.59 80.17 4.68 80.05 4.78C79.89 4.91 79.73 5.04 79.57 5.18C79.45 5.29 79.33 5.4 79.2 5.51C79.06 5.64 78.92 5.77 78.77 5.9C78.64 6.02 78.52 6.15 78.39 6.27L78.01 6.65L77.62 7.07C77.51 7.19 77.4 7.32 77.29 7.44C77.16 7.6 77.02 7.75 76.89 7.91C76.79 8.03 76.7 8.14 76.61 8.26C76.47 8.44 76.34 8.62 76.21 8.8C76.13 8.91 76.05 9.01 75.97 9.12C75.83 9.32 75.69 9.53 75.55 9.73C75.49 9.82 75.43 9.92 75.37 10.01C75.22 10.24 75.08 10.47 74.94 10.71C74.9 10.79 74.85 10.87 74.8 10.94C74.65 11.2 74.52 11.46 74.38 11.72C74.34 11.8 74.29 11.89 74.25 11.97L74.22 12.03C71.25 18.03 71.04 25.3 74.29 31.73L93.93 70.6L113.57 31.73C116.85 25.3 116.64 18.03 113.67 12.03M502.02 62.82C502.02 67.58 499.39 79.94 487.37 79.94C475.15 79.94 472.41 67.26 472.41 62.82L472.41 20.57L455.81 20.57L455.81 65.29C455.81 74 458.81 81.09 464.74 86.36C471.08 91.99 477.82 94.4 487.27 94.4C496.72 94.4 503.44 92 509.74 86.36C515.63 81.1 518.62 74.01 518.62 65.29L518.62 20.57L502.02 20.57L502.02 62.82L502.02 62.82Z" />
</svg>